<?xml version="1.0" encoding="UTF-8" standalone="no"?>
<!DOCTYPE svg PUBLIC "-//W3C//DTD SVG 1.1//EN" "http://www.w3.org/Graphics/SVG/1.1/DTD/svg11.dtd">
<svg version="1.1" xmlns="http://www.w3.org/2000/svg" xmlns:xlink="http://www.w3.org/1999/xlink" preserveAspectRatio="xMidYMid meet" viewBox="0 0 564 168" width="564" height="168"><defs><path d="M544.25 163.42C544.24 163.42 544.24 163.42 544.23 163.42C491.79 163.42 72.21 163.42 19.77 163.42C10.92 163.43 3.73 156.26 3.72 147.41C3.72 134.65 3.72 32.54 3.72 19.78C3.73 10.92 10.91 3.75 19.77 3.75C72.21 3.75 491.78 3.75 544.23 3.75C553.08 3.75 560.25 10.92 560.25 19.77C560.25 19.77 560.25 19.77 560.25 19.78C560.25 28.29 560.26 70.83 560.26 147.41C555.48 158.08 550.14 163.42 544.25 163.42Z" id="g5r0VnEDR"></path><path d="M19.77 167.14C8.86 167.14 0.02 158.31 0 147.41C0 134.65 0 32.54 0 19.78C0.02 8.87 8.86 0.04 19.77 0.03C72.21 0.03 491.78 0.03 544.23 0.03C555.14 0.04 563.98 8.88 564 19.78C564 32.54 564 134.65 564 147.41C564 158.29 555.12 167.14 544.23 167.14C439.34 167.14 72.21 167.14 19.77 167.14Z" id="d6wIdNGsL"></path><path d="M544.25 163.42C544.24 163.42 544.24 163.42 544.23 163.42C491.79 163.42 72.21 163.42 19.77 163.42C10.92 163.43 3.73 156.26 3.72 147.41C3.72 134.65 3.72 32.54 3.72 19.78C3.73 10.92 10.91 3.75 19.77 3.75C72.21 3.75 491.78 3.75 544.23 3.75C553.08 3.75 560.25 10.92 560.25 19.77C560.25 19.77 560.25 19.77 560.25 19.78C560.25 28.29 560.26 70.83 560.26 147.41C555.48 158.08 550.14 163.42 544.25 163.42Z" id="c8IfGT3yG"></path><path d="M137.48 62.38C131.16 53.17 121.37 51.92 117.93 51.82C109.71 50.95 101.73 56.73 97.55 56.73C93.27 56.73 86.82 51.9 79.87 52.04C70.93 52.18 62.56 57.36 57.97 65.4C48.5 81.79 55.56 105.88 64.64 119.13C69.18 125.63 74.48 132.87 81.42 132.61C88.22 132.34 90.75 128.29 98.95 128.29C107.07 128.29 109.45 132.61 116.54 132.45C123.83 132.34 128.41 125.93 132.8 119.38C138.04 111.95 140.15 104.62 140.23 104.24C140.06 104.19 126.08 98.85 125.94 82.71C125.81 69.24 136.97 62.69 137.48 62.38ZM118.02 26.01C112.73 26.25 106.12 29.67 102.31 34.13C98.94 38.07 95.93 44.52 96.71 50.59C102.65 51.03 108.75 47.6 112.56 43.1C116.21 38.53 118.71 32.32 118.02 26.01Z" id="fkBtoy2nD"></path><path d="M263.31 0.03L373.34 167.14C475.88 167.14 532.84 167.14 544.23 167.14C555.14 167.13 563.98 158.3 564 147.4C564 134.64 564 32.54 564 19.78C563.98 8.88 555.14 0.04 544.23 0.03C544.23 0.03 450.59 0.03 263.31 0.03Z" id="iRQAplfCc"></path><linearGradient id="gradienta1ldPEiDg7" gradientUnits="userSpaceOnUse" x1="413.65" y1="167.58" x2="413.65" y2="-435.09"><stop style="stop-color: #1a1a1a;stop-opacity: 0.1" offset="0%"></stop><stop style="stop-color: #212121;stop-opacity: 0.151" offset="12.3%"></stop><stop style="stop-color: #353535;stop-opacity: 0.227" offset="30.8%"></stop><stop style="stop-color: #575757;stop-opacity: 0.318" offset="53.2%"></stop><stop style="stop-color: #858585;stop-opacity: 0.421" offset="78.3%"></stop><stop style="stop-color: #b3b3b3;stop-opacity: 0.51" offset="100%"></stop></linearGradient><path d="M214.83 131.68L209.63 115.35L191.55 115.35L186.6 131.68L177.36 131.68L195.27 76.07L206.33 76.07L224.32 131.68L214.83 131.68ZM203.36 93.97C202.86 92.49 201.93 89 200.55 83.5C200.54 83.5 200.4 83.5 200.39 83.5C199.84 85.86 198.95 89.35 197.75 93.97C197.44 94.94 195.9 99.78 193.12 108.49L208.06 108.49C205.24 99.78 203.67 94.94 203.36 93.97ZM264.73 127.31C261.42 130.83 257.29 132.59 252.37 132.59C247.06 132.59 243.24 130.7 240.92 126.9C240.92 128.3 240.92 135.32 240.92 147.94L232 147.94C232 122.03 232 107.64 232 104.76C232 100.48 231.89 96.09 231.67 91.58C232.2 91.58 234.81 91.58 239.51 91.58L240.01 97.94C240.11 97.94 240.17 97.94 240.18 97.94C243.15 93.15 247.66 90.75 253.71 90.75C258.44 90.75 262.39 92.62 265.55 96.36C268.71 100.11 270.29 105.03 270.29 111.14C270.29 117.96 268.44 123.35 264.73 127.31ZM258.57 101.81C256.65 99.17 254.06 97.85 250.81 97.85C248.62 97.85 246.62 98.59 244.83 100.04C243.04 101.5 241.87 103.41 241.33 105.77C241.08 106.66 240.94 107.57 240.91 108.49C240.91 109.15 240.91 114.51 240.91 115.18C240.91 118.09 241.81 120.55 243.6 122.56C245.38 124.57 247.71 125.58 250.57 125.58C253.92 125.58 256.54 124.28 258.41 121.7C260.28 119.11 261.21 115.7 261.21 111.47C261.21 107.56 260.34 104.34 258.57 101.81ZM310.87 127.31C307.55 130.83 303.42 132.59 298.5 132.59C293.19 132.59 289.37 130.7 287.05 126.9C287.05 128.3 287.05 135.32 287.05 147.94L278.14 147.94C278.14 122.03 278.14 107.64 278.14 104.76C278.14 100.48 278.02 96.09 277.81 91.58C278.33 91.58 280.94 91.58 285.64 91.58L286.14 97.94C286.24 97.94 286.3 97.94 286.31 97.94C289.28 93.15 293.79 90.75 299.84 90.75C304.57 90.75 308.52 92.62 311.69 96.36C314.84 100.11 316.43 105.03 316.43 111.14C316.43 117.96 314.58 123.35 310.87 127.31ZM304.7 101.81C302.77 99.17 300.19 97.85 296.95 97.85C294.75 97.85 292.75 98.59 290.96 100.04C289.17 101.5 288 103.41 287.46 105.77C287.19 106.88 287.04 107.78 287.04 108.49C287.04 109.15 287.04 114.51 287.04 115.18C287.04 118.09 287.94 120.55 289.72 122.56C291.51 124.57 293.83 125.58 296.7 125.58C300.06 125.58 302.67 124.28 304.54 121.7C306.41 119.11 307.35 115.7 307.35 111.47C307.35 107.56 306.46 104.34 304.7 101.81ZM363.07 127.64C359.45 130.88 354.39 132.51 347.91 132.51C341.93 132.51 337.13 131.35 333.51 129.04C333.71 128.3 335.36 122.36 335.57 121.62C339.48 123.93 343.77 125.08 348.44 125.08C351.8 125.08 354.42 124.32 356.28 122.82C358.15 121.3 359.09 119.28 359.09 116.76C359.09 114.5 358.31 112.6 356.78 111.06C355.24 109.52 352.69 108.09 349.1 106.77C339.36 103.14 334.49 97.83 334.49 90.84C334.49 86.28 336.21 82.54 339.65 79.62C343.08 76.71 347.64 75.25 353.31 75.25C358.37 75.25 362.59 76.13 365.94 77.89C365.71 78.61 363.92 84.42 363.7 85.15C360.55 83.45 356.99 82.59 353.01 82.59C349.87 82.59 347.4 83.37 345.64 84.9C344.16 86.28 343.4 87.95 343.4 89.94C343.4 92.14 344.26 93.96 345.97 95.39C347.44 96.71 350.15 98.14 354.05 99.68C358.84 101.61 362.36 103.86 364.61 106.44C366.88 109.02 368.01 112.24 368.01 116.08C368.01 120.82 366.36 124.67 363.07 127.64ZM387.73 98.27C387.73 109.95 387.73 116.44 387.73 117.74C387.73 122.69 389.46 125.16 392.93 125.16C394.52 125.16 395.84 125.03 396.89 124.75C396.91 125.42 397.11 130.83 397.13 131.51C395.38 132.17 393.07 132.5 390.2 132.5C386.68 132.5 383.93 131.42 381.95 129.28C379.97 127.13 378.97 123.53 378.97 118.47C378.97 117.12 378.97 110.38 378.97 98.25L373.12 98.25L373.12 91.57L378.97 91.57L378.97 84.22L387.73 81.58L387.73 91.57L397.55 91.57L397.55 98.27L387.73 98.27ZM436.5 126.48C432.82 130.56 427.92 132.59 421.81 132.59C415.92 132.59 411.23 130.64 407.74 126.74C404.24 122.83 402.5 117.91 402.5 111.97C402.5 105.76 404.3 100.67 407.9 96.71C411.51 92.75 416.37 90.77 422.47 90.77C428.36 90.77 433.09 92.72 436.66 96.63C440.08 100.41 441.78 105.3 441.78 111.3C441.78 117.47 440.02 122.53 436.5 126.48ZM430.16 102.05C428.29 98.86 425.62 97.27 422.15 97.27C418.58 97.27 415.84 98.86 413.98 102.05C412.38 104.68 411.59 107.89 411.59 111.67C411.59 115.35 412.38 118.51 413.98 121.14C415.91 124.32 418.59 125.92 422.08 125.92C425.48 125.92 428.15 124.29 430.08 121.06C431.72 118.36 432.55 115.19 432.55 111.51C432.55 107.83 431.75 104.68 430.16 102.05ZM467.96 99.17C464.82 99.17 462.4 100.35 460.69 102.72C459.21 104.81 458.47 107.45 458.47 110.64C458.47 112.04 458.47 119.06 458.47 131.68L449.55 131.68C449.55 115.2 449.55 106.04 449.55 104.21C449.56 100 449.48 95.79 449.3 91.59C449.81 91.59 452.4 91.59 457.06 91.59L457.38 99.26C457.53 99.26 457.61 99.26 457.63 99.26C458.58 96.62 460.05 94.49 462.09 92.9C463.95 91.51 466.21 90.76 468.53 90.75C469.35 90.75 470.1 90.81 470.76 90.92C470.76 91.48 470.76 94.32 470.76 99.42C469.52 99.25 468.58 99.17 467.96 99.17ZM510.29 113.78C507.62 113.78 486.23 113.78 483.56 113.78C483.66 117.74 484.96 120.77 487.44 122.86C489.69 124.73 492.6 125.66 496.18 125.66C500.14 125.66 503.75 125.03 507 123.77C507.14 124.39 508.26 129.33 508.4 129.95C504.6 131.6 500.12 132.43 494.95 132.43C488.73 132.43 483.85 130.6 480.29 126.94C476.75 123.29 474.97 118.37 474.97 112.22C474.97 106.17 476.62 101.14 479.93 97.12C483.39 92.84 488.07 90.69 493.96 90.69C499.74 90.69 504.11 92.84 507.08 97.12C509.44 100.52 510.62 104.73 510.62 109.74C510.64 111.09 510.53 112.44 510.29 113.78ZM500.39 100.58C498.85 98.09 496.48 96.86 493.29 96.86C490.38 96.86 488.01 98.06 486.2 100.49C484.72 102.41 483.84 104.73 483.56 107.42C484.8 107.42 490.99 107.42 502.12 107.42C501.77 104.14 501.2 101.86 500.39 100.58Z" id="c7KpS3Fs8C"></path><path d="M182.58 56.08C182.58 53.39 182.58 31.88 182.58 29.2C185.07 28.81 187.59 28.62 190.12 28.63C200.34 28.63 205.05 33.65 205.05 41.85C205.05 51.3 199.49 56.41 188.98 56.41C186.5 56.41 184.36 56.29 182.58 56.08ZM186.95 32.36C186.95 34.4 186.95 50.75 186.95 52.8C187.48 52.88 188.49 52.92 189.91 52.92C196.61 52.92 200.42 49.11 200.42 41.97C200.42 35.61 196.97 32.07 190.48 32.07C189.1 32.07 187.93 32.16 186.95 32.36ZM210.22 46.48C210.22 40.39 214.03 36.05 220.04 36.05C225.72 36.05 229.53 40.15 229.53 46.15C229.53 52.31 225.6 56.61 219.72 56.61C213.96 56.61 210.22 52.31 210.22 46.48ZM214.69 46.35C214.69 50.41 216.76 53.37 219.84 53.37C222.92 53.37 224.99 50.2 224.99 46.27C224.99 42.25 222.96 39.25 219.88 39.25C216.72 39.25 214.69 42.21 214.69 46.35ZM256.22 56.17L252.2 56.17C250.67 51.03 249.81 48.18 249.64 47.61C249.01 45.51 248.48 43.39 248.06 41.24C248.05 41.24 247.98 41.24 247.98 41.24C247.65 43.39 247.04 45.54 246.4 47.61C246.22 48.18 245.31 51.03 243.68 56.17L239.62 56.17L233.82 36.46L238.32 36.46C239.66 42.08 240.4 45.2 240.55 45.83C241.08 48.06 241.52 50.17 241.89 52.15C241.9 52.15 241.97 52.15 241.97 52.15C242.3 50.5 242.82 48.42 243.6 45.87C243.78 45.24 244.72 42.11 246.4 36.46L249.97 36.46C251.57 41.99 252.47 45.05 252.65 45.67C253.29 47.9 253.82 50.09 254.23 52.16C254.24 52.16 254.34 52.16 254.35 52.16C254.63 50.13 255.08 47.98 255.68 45.67C255.84 45.05 256.64 41.99 258.08 36.46L262.38 36.46L256.22 56.17ZM280.7 56.17C280.7 49.38 280.7 45.6 280.7 44.85C280.7 41.36 279.36 39.62 276.72 39.62C274.13 39.62 272.34 41.85 272.34 44.44C272.34 45.23 272.34 49.13 272.34 56.17L267.96 56.17C267.96 47.72 267.96 43.03 267.96 42.09C267.96 40.35 267.92 38.48 267.8 36.45C268.06 36.45 269.34 36.45 271.65 36.45L271.86 39.5C271.93 39.5 271.97 39.5 271.98 39.5C273.16 37.39 275.55 36.05 278.23 36.05C282.37 36.05 285.08 39.22 285.08 44.36C285.08 45.15 285.08 49.09 285.08 56.17L280.7 56.17ZM292.77 56.17L292.77 27.42L297.16 27.42L297.16 56.17L292.77 56.17ZM303.64 46.48C303.64 40.39 307.45 36.05 313.45 36.05C319.13 36.05 322.95 40.15 322.95 46.15C322.95 52.31 319.01 56.61 313.13 56.61C307.37 56.61 303.64 52.31 303.64 46.48ZM308.1 46.35C308.1 50.41 310.18 53.37 313.25 53.37C316.33 53.37 318.4 50.2 318.4 46.27C318.4 42.25 316.38 39.25 313.29 39.25C310.13 39.25 308.1 42.21 308.1 46.35ZM339.9 53.9C339.83 53.9 339.79 53.9 339.78 53.9C338.45 55.72 336.49 56.61 334.02 56.61C330.49 56.61 327.98 54.14 327.98 50.81C327.98 45.95 332.2 43.43 339.5 43.43C339.5 43.4 339.5 43.11 339.5 43.07C339.5 40.47 338.12 39.17 335.41 39.17C333.46 39.17 331.76 39.66 330.26 40.64C330.17 40.35 329.46 38.05 329.37 37.76C331.19 36.62 333.46 36.05 336.13 36.05C341.28 36.05 343.88 38.77 343.88 44.21C343.88 44.93 343.88 50.74 343.88 51.46C343.88 53.45 343.97 55 344.17 56.17C343.9 56.17 342.59 56.17 340.22 56.17L339.9 53.9ZM332.31 50.32C332.31 52.39 333.57 53.4 335.31 53.4C337.54 53.4 339.62 51.7 339.62 49.39C339.62 49.19 339.62 48.18 339.62 46.35C334.74 47.14 332.31 48.46 332.31 50.32ZM364.95 53C364.88 53 364.84 53 364.83 53C363.57 55.39 361.46 56.61 358.5 56.61C353.75 56.61 350.23 52.43 350.23 46.55C350.23 40.39 353.88 36.05 358.86 36.05C361.5 36.05 363.37 36.94 364.42 38.73C364.43 38.73 364.46 38.73 364.51 38.73L364.51 27.42L368.89 27.42C368.89 41.48 368.89 49.29 368.89 50.85C368.89 52.76 368.94 54.54 369.06 56.17C368.8 56.17 367.5 56.17 365.16 56.17L364.95 53ZM359.89 39.46C356.65 39.46 354.66 42.34 354.66 46.39C354.66 50.37 356.72 53.09 359.81 53.09C362.56 53.09 364.51 50.69 364.51 47.85C364.51 47.64 364.51 46.54 364.51 44.57C363.29 41.16 361.75 39.46 359.89 39.46ZM387.21 46.48C387.21 40.39 391.02 36.05 397.02 36.05C402.7 36.05 406.51 40.15 406.51 46.15C406.52 52.31 402.58 56.61 396.69 56.61C390.94 56.61 387.21 52.31 387.21 46.48ZM391.67 46.35C391.67 50.41 393.74 53.37 396.82 53.37C399.9 53.37 401.97 50.2 401.97 46.27C401.97 42.25 399.95 39.25 396.86 39.25C393.7 39.25 391.67 42.21 391.67 46.35ZM425.69 56.17C425.69 49.38 425.69 45.6 425.69 44.85C425.69 41.36 424.35 39.62 421.71 39.62C419.12 39.62 417.34 41.85 417.34 44.44C417.34 45.23 417.34 49.13 417.34 56.17L412.95 56.17C412.95 47.72 412.95 43.03 412.95 42.09C412.95 40.35 412.91 38.48 412.79 36.45C413.04 36.45 414.33 36.45 416.64 36.45L416.85 39.5C416.92 39.5 416.96 39.5 416.97 39.5C418.14 37.39 420.54 36.05 423.21 36.05C427.35 36.05 430.07 39.21 430.07 44.36C430.07 45.15 430.07 49.08 430.07 56.17L425.69 56.17ZM454.73 39.74C454.73 45.48 454.73 48.67 454.73 49.31C454.73 51.75 455.57 52.96 457.28 52.96C458.05 52.96 458.7 52.88 459.22 52.76C459.23 53.09 459.33 55.75 459.34 56.09C458.49 56.41 457.35 56.58 455.94 56.58C452.49 56.58 450.42 54.67 450.42 49.68C450.42 49.02 450.42 45.71 450.42 39.74L447.55 39.74L447.55 36.46L450.42 36.46L450.42 32.85L454.73 31.55L454.73 36.45L459.55 36.45L459.55 39.74L454.73 39.74ZM478.36 56.17C478.36 49.43 478.36 45.68 478.36 44.93C478.36 41.41 477.03 39.62 474.38 39.62C472.11 39.62 470 41.16 470 44.29C470 45.08 470 49.04 470 56.17L465.62 56.17L465.62 27.42L470 27.42L470 39.25C470.05 39.25 470.08 39.25 470.09 39.25C471.47 37.11 473.46 36.05 476.01 36.05C480.19 36.05 482.74 39.29 482.74 44.44C482.74 45.23 482.74 49.13 482.74 56.17L478.36 56.17ZM493.35 47.37C493.43 51.1 495.9 53.2 499.56 53.2C501.5 53.2 503.29 52.88 504.87 52.27C504.94 52.58 505.49 55.01 505.55 55.31C503.69 56.12 501.5 56.53 498.94 56.53C492.78 56.53 489.13 52.63 489.13 46.6C489.13 40.55 492.86 36.01 498.45 36.01C503.49 36.01 506.65 39.74 506.65 45.38C506.67 46.05 506.62 46.71 506.5 47.37C503.87 47.37 494.66 47.37 493.35 47.37ZM498.14 39.05C495.63 39.05 493.64 41.24 493.35 44.24C493.96 44.24 497 44.24 502.48 44.24C501.46 40.78 500.01 39.05 498.14 39.05Z" id="b2kMRB5Xy5"></path></defs><g><g><g><use xlink:href="#g5r0VnEDR" opacity="1" fill="#ffffff" fill-opacity="1"></use><g><use xlink:href="#g5r0VnEDR" opacity="1" fill-opacity="0" stroke="#000000" stroke-width="1" stroke-opacity="0"></use></g></g><g><use xlink:href="#d6wIdNGsL" opacity="1" fill="#a6a6a6" fill-opacity="1"></use><g><use xlink:href="#d6wIdNGsL" opacity="1" fill-opacity="0" stroke="#000000" stroke-width="1" stroke-opacity="0"></use></g></g><g><use xlink:href="#c8IfGT3yG" opacity="1" fill="#000000" fill-opacity="1"></use><g><use xlink:href="#c8IfGT3yG" opacity="1" fill-opacity="0" stroke="#000000" stroke-width="1" stroke-opacity="0"></use></g></g><g><use xlink:href="#fkBtoy2nD" opacity="1" fill="#ffffff" fill-opacity="1"></use><g><use xlink:href="#fkBtoy2nD" opacity="1" fill-opacity="0" stroke="#000000" stroke-width="1" stroke-opacity="0"></use></g></g><g><use xlink:href="#iRQAplfCc" opacity="1" fill="url(#gradienta1ldPEiDg7)"></use><g><use xlink:href="#iRQAplfCc" opacity="1" fill-opacity="0" stroke="#000000" stroke-width="1" stroke-opacity="0"></use></g></g><g><use xlink:href="#c7KpS3Fs8C" opacity="1" fill="#ffffff" fill-opacity="1"></use><g><use xlink:href="#c7KpS3Fs8C" opacity="1" fill-opacity="0" stroke="#000000" stroke-width="1" stroke-opacity="0"></use></g></g><g><use xlink:href="#b2kMRB5Xy5" opacity="1" fill="#ffffff" fill-opacity="1"></use><g><use xlink:href="#b2kMRB5Xy5" opacity="1" fill-opacity="0" stroke="#000000" stroke-width="1" stroke-opacity="0"></use></g></g></g></g></svg>